<?xml version="1.0" encoding="utf-8"?>
<!-- Svg Vector Icons : http://www.onlinewebfonts.com/icon -->
<!DOCTYPE svg PUBLIC "-//W3C//DTD SVG 1.1//EN" "http://www.w3.org/Graphics/SVG/1.1/DTD/svg11.dtd">
<svg version="1.1" xmlns="http://www.w3.org/2000/svg" xmlns:xlink="http://www.w3.org/1999/xlink" x="0px" y="0px" viewBox="0 0 1000 1000" enable-background="new 0 0 1000 1000" xml:space="preserve">
<metadata> Svg Vector Icons : http://www.onlinewebfonts.com/icon </metadata>
<g><path d="M366.5,410.3l310.7,179.3L366.5,766.8V410.3L366.5,410.3z M900.4,856.6V322.8H99.6v533.8H900.4z M900.4,233.1c23.6,0,44.5,8.7,62.5,26.1c18.1,17.4,27.1,38.6,27.1,63.6v533.8c0,23.6-9,44.1-27.1,61.5s-38.9,26.1-62.5,26.1H99.6c-23.6,0-44.5-8.7-62.5-26.1C19,900.7,10,880.2,10,856.6V322.8c0-25,9-46.2,27.1-63.6c18.1-17.4,38.9-26.1,62.5-26.1h337.8l-146-146l31.3-31.3L500,233.1L677.2,55.8l31.3,31.3l-146,146H900.4z"/></g>
</svg>